<svg width="47" height="47" viewBox="0 0 47 47" fill="none" xmlns="http://www.w3.org/2000/svg">
<path d="M42.8324 1.77344H4.17126C2.84703 1.77344 1.77353 2.84694 1.77353 4.17117V42.8323C1.77353 44.1566 2.84703 45.2301 4.17126 45.2301H42.8324C44.1567 45.2301 45.2302 44.1566 45.2302 42.8323V4.17117C45.2302 2.84694 44.1567 1.77344 42.8324 1.77344Z" fill="#3D5A98"/>
<path d="M31.7544 45.2265V28.3983H37.4017L38.2463 21.8403H31.7544V17.6543C31.7544 15.756 32.2831 14.4598 35.004 14.4598H38.4776V8.58481C36.7955 8.40951 35.1052 8.32616 33.4141 8.33513C28.413 8.33513 24.9688 11.3828 24.9688 17.0044V21.8403H19.3214V28.3983H24.9688V45.2265H31.7544Z" fill="white"/>
</svg>
