<svg width="23" height="23" viewBox="0 0 23 23" fill="none" xmlns="http://www.w3.org/2000/svg">
<path d="M11.5 2.15625C6.325 2.15625 2.15625 6.325 2.15625 11.5C2.15625 16.675 6.325 20.8438 11.5 20.8438C16.675 20.8438 20.8438 16.675 20.8438 11.5C20.8438 10.4937 20.7086 9.49181 20.3493 8.55744L19.182 9.70312C19.3258 10.2781 19.407 10.8531 19.407 11.5C19.407 15.8844 15.8851 19.4062 11.5007 19.4062C7.11634 19.4062 3.59375 15.8844 3.59375 11.5C3.59375 7.11562 7.11562 3.59375 11.5 3.59375C13.6562 3.59375 15.5926 4.45194 16.9582 5.81756L17.9688 4.807C16.3156 3.15388 14.0156 2.15625 11.5 2.15625ZM19.6075 5.2325L11.5 13.3422L8.42375 10.2659L7.38875 11.2987L10.9825 14.8925L11.5 15.3856L12.0175 14.8918L20.6425 6.26678L19.6075 5.23178V5.2325Z" fill="black"/>
</svg>
